<svg id="svg" version="1.1" width="400" height="400" viewBox="0 0 400 400" xmlns="http://www.w3.org/2000/svg" xmlns:xlink="http://www.w3.org/1999/xlink" ><g id="svgg"><path id="path0" d="M212.800 40.848 C 203.659 41.631,194.354 45.392,186.600 51.438 C 180.295 56.354,70.448 166.873,67.583 171.183 C 63.766 176.924,60.592 184.236,59.805 189.100 C 59.653 190.035,59.394 190.800,59.228 190.800 C 59.061 190.800,58.925 194.940,58.925 200.000 C 58.925 205.060,59.061 209.200,59.228 209.200 C 59.394 209.200,59.653 209.965,59.805 210.900 C 60.592 215.764,63.766 223.076,67.583 228.817 C 70.448 233.127,180.295 343.646,186.600 348.562 C 204.036 362.157,227.468 363.061,246.400 350.869 C 249.609 348.803,290.000 309.349,290.000 308.281 C 290.000 307.851,254.556 272.400,254.125 272.400 C 253.948 272.400,245.747 280.455,235.901 290.299 L 217.999 308.198 163.899 254.099 L 109.800 200.000 163.899 145.901 L 217.998 91.803 253.934 127.601 C 273.698 147.291,289.899 163.580,289.935 163.801 C 289.971 164.021,273.890 180.311,254.200 200.000 C 234.510 219.689,218.400 235.979,218.400 236.199 C 218.400 236.420,226.413 244.607,236.206 254.393 L 254.012 272.187 292.039 234.193 C 331.406 194.862,332.529 193.657,335.762 187.275 C 337.357 184.127,339.087 179.456,339.849 176.240 C 340.220 174.678,340.657 173.220,340.822 173.000 C 341.215 172.475,341.148 154.800,340.753 154.800 C 340.586 154.800,340.323 153.945,340.170 152.900 C 339.454 148.032,335.550 139.246,331.773 134.000 C 328.505 129.461,250.708 51.911,246.998 49.494 C 236.292 42.519,225.411 39.768,212.800 40.848 " stroke="none" fill="#9bcc3c" fill-rule="evenodd"></path><path id="path1" d="M214.000 40.000 C 214.000 40.220,213.112 40.400,212.026 40.400 C 209.177 40.400,201.129 42.165,199.105 43.233 C 198.723 43.435,198.158 43.600,197.848 43.600 C 197.539 43.600,197.182 43.870,197.055 44.200 C 196.929 44.530,196.529 44.800,196.168 44.800 C 195.238 44.800,190.822 47.246,189.442 48.526 C 188.804 49.117,188.052 49.600,187.770 49.600 C 187.488 49.600,186.589 50.230,185.773 51.000 C 184.956 51.770,184.178 52.402,184.044 52.405 C 183.450 52.417,68.800 167.534,68.800 168.118 C 68.800 168.478,68.470 168.948,68.067 169.164 C 67.665 169.380,66.757 170.641,66.050 171.967 C 65.343 173.293,64.547 174.608,64.281 174.889 C 63.852 175.342,62.423 178.384,61.598 180.600 C 61.434 181.040,61.097 181.903,60.850 182.519 C 60.602 183.134,60.400 183.989,60.400 184.419 C 60.400 184.848,60.235 185.200,60.033 185.200 C 59.663 185.200,58.800 188.574,58.800 190.020 C 58.800 191.476,59.528 190.809,59.805 189.100 C 60.592 184.236,63.766 176.924,67.583 171.183 C 70.448 166.873,180.295 56.354,186.600 51.438 C 193.072 46.392,199.502 43.410,207.800 41.605 C 212.426 40.599,222.199 40.378,226.235 41.188 C 234.868 42.921,240.155 45.036,246.998 49.494 C 250.708 51.911,328.505 129.461,331.773 134.000 C 335.550 139.246,339.454 148.032,340.170 152.900 C 340.442 154.753,341.200 155.576,341.200 154.020 C 341.200 152.574,340.337 149.200,339.967 149.200 C 339.765 149.200,339.596 148.885,339.590 148.500 C 339.568 146.941,336.794 139.850,335.952 139.200 C 335.809 139.090,335.116 137.920,334.411 136.600 C 333.706 135.280,332.695 133.788,332.165 133.284 C 331.634 132.780,331.200 132.164,331.200 131.916 C 331.200 131.359,252.358 52.410,251.796 52.404 C 251.574 52.402,251.193 52.081,250.950 51.692 C 250.707 51.302,249.719 50.457,248.754 49.813 C 247.789 49.169,246.820 48.440,246.600 48.194 C 246.021 47.545,240.510 44.800,239.787 44.800 C 239.450 44.800,239.071 44.530,238.945 44.200 C 238.818 43.870,238.384 43.600,237.981 43.600 C 237.577 43.600,237.149 43.441,237.030 43.248 C 236.910 43.054,236.404 42.797,235.906 42.676 C 235.408 42.555,234.280 42.262,233.400 42.025 C 230.183 41.158,225.753 40.400,223.900 40.400 C 222.855 40.400,222.000 40.220,222.000 40.000 C 222.000 39.760,220.400 39.600,218.000 39.600 C 215.600 39.600,214.000 39.760,214.000 40.000 M163.800 146.000 L 109.801 200.000 163.900 254.099 L 217.999 308.198 235.901 290.299 C 245.747 280.455,253.948 272.400,254.125 272.400 C 254.556 272.400,290.000 307.851,290.000 308.281 C 290.000 309.349,249.609 348.803,246.400 350.869 C 227.468 363.061,204.036 362.157,186.600 348.562 C 180.295 343.646,70.448 233.127,67.583 228.817 C 63.766 223.076,60.592 215.764,59.805 210.900 C 59.528 209.191,58.800 208.524,58.800 209.980 C 58.800 211.426,59.663 214.800,60.033 214.800 C 60.235 214.800,60.400 215.152,60.400 215.581 C 60.400 216.011,60.602 216.866,60.850 217.481 C 61.097 218.097,61.434 218.960,61.598 219.400 C 62.423 221.616,63.852 224.658,64.281 225.111 C 64.547 225.392,65.343 226.707,66.050 228.033 C 66.757 229.359,67.665 230.620,68.067 230.836 C 68.470 231.052,68.800 231.522,68.800 231.882 C 68.800 232.466,183.450 347.583,184.044 347.595 C 184.178 347.598,184.956 348.230,185.773 349.000 C 186.589 349.770,187.488 350.400,187.770 350.400 C 188.052 350.400,188.804 350.883,189.442 351.474 C 190.822 352.754,195.238 355.200,196.168 355.200 C 196.529 355.200,196.929 355.470,197.055 355.800 C 197.182 356.130,197.539 356.400,197.848 356.400 C 198.158 356.400,198.723 356.565,199.105 356.767 C 201.129 357.835,209.177 359.600,212.026 359.600 C 213.112 359.600,214.000 359.780,214.000 360.000 C 214.000 360.240,215.600 360.400,218.000 360.400 C 220.400 360.400,222.000 360.240,222.000 360.000 C 222.000 359.780,222.855 359.600,223.900 359.600 C 225.753 359.600,230.183 358.842,233.400 357.975 C 234.280 357.738,235.408 357.445,235.906 357.324 C 236.404 357.203,236.910 356.946,237.030 356.752 C 237.149 356.559,237.577 356.400,237.981 356.400 C 238.384 356.400,238.818 356.130,238.945 355.800 C 239.071 355.470,239.450 355.200,239.787 355.200 C 240.510 355.200,246.021 352.455,246.600 351.806 C 246.820 351.560,247.789 350.831,248.754 350.187 C 249.719 349.543,250.707 348.698,250.950 348.308 C 251.193 347.919,251.574 347.598,251.796 347.595 C 252.410 347.586,290.800 309.036,290.800 308.428 C 290.800 308.137,282.790 299.897,273.000 290.117 C 263.210 280.338,255.200 272.286,255.200 272.225 C 255.200 272.164,272.300 255.015,293.200 234.118 C 314.100 213.220,331.203 195.959,331.207 195.761 C 331.211 195.562,331.674 194.963,332.237 194.429 C 332.800 193.895,333.789 192.410,334.436 191.129 C 335.082 189.848,335.789 188.800,336.006 188.800 C 336.223 188.800,336.400 188.618,336.400 188.396 C 336.400 188.173,336.745 187.228,337.166 186.296 C 337.588 185.363,338.165 183.880,338.448 183.000 C 338.731 182.120,339.107 181.229,339.282 181.020 C 339.457 180.811,339.600 180.226,339.600 179.720 C 339.600 179.214,339.755 178.800,339.945 178.800 C 340.288 178.800,341.200 174.955,341.200 173.510 C 341.200 172.164,340.478 173.153,340.184 174.902 C 339.767 177.387,338.128 182.140,336.419 185.823 C 332.945 193.312,332.810 193.459,292.039 234.193 L 254.012 272.187 236.206 254.393 C 226.413 244.607,218.400 236.420,218.400 236.199 C 218.400 235.979,234.510 219.689,254.200 200.000 C 273.890 180.311,290.000 164.109,290.000 163.996 C 290.000 163.732,218.495 92.234,218.097 92.100 C 217.933 92.045,193.500 116.300,163.800 146.000 M253.723 128.601 L 289.132 164.001 253.366 199.755 C 232.712 220.402,217.600 235.810,217.600 236.221 C 217.600 236.628,225.168 244.495,235.200 254.517 C 244.880 264.188,252.800 272.152,252.800 272.215 C 252.800 272.494,218.280 306.800,217.999 306.800 C 217.826 306.800,193.651 282.770,164.279 253.400 L 110.873 200.000 164.279 146.600 C 193.651 117.230,217.826 93.200,217.999 93.200 C 218.172 93.200,234.248 109.130,253.723 128.601 M341.080 163.700 C 341.123 168.375,341.190 172.290,341.227 172.400 C 341.792 174.070,342.260 159.828,341.743 156.700 C 341.205 153.445,341.003 155.572,341.080 163.700 M58.254 193.056 C 57.693 197.150,58.063 208.800,58.754 208.800 C 58.889 208.800,59.000 204.840,59.000 200.000 C 59.000 191.423,58.771 189.288,58.254 193.056 " stroke="none" fill="#e0f0c7" fill-rule="evenodd"></path></g></svg>